STARTFONT 2.1
FONT -FontForge-Earth Orbiter Condensed-Book-R-Condensed--15-1080-10-10-P-73-ISO10646-1
SIZE 108 10 10
FONTBOUNDINGBOX 14 15 -1 -3
COMMENT "Generated by fontforge, http://fontforge.sourceforge.net"
COMMENT "2016 Iconian Fonts - www.iconian.com"
STARTPROPERTIES 39
FOUNDRY "FontForge"
FAMILY_NAME "Earth Orbiter Condensed"
WEIGHT_NAME "Book"
SLANT "R"
SETWIDTH_NAME "Condensed"
ADD_STYLE_NAME ""
PIXEL_SIZE 15
POINT_SIZE 1080
RESOLUTION_X 10
RESOLUTION_Y 10
SPACING "P"
AVERAGE_WIDTH 73
CHARSET_REGISTRY "ISO10646"
CHARSET_ENCODING "1"
FONTNAME_REGISTRY ""
CHARSET_COLLECTIONS "ISO10646-1"
FONT_NAME "EarthOrbiterCondensed"
FACE_NAME "Earth Orbiter Condensed"
COPYRIGHT "2016 Iconian Fonts - www.iconian.com"
FONT_VERSION "1.0; 2016"
FONT_ASCENT 12
FONT_DESCENT 3
UNDERLINE_POSITION -3
UNDERLINE_THICKNESS 1
X_HEIGHT 8
CAP_HEIGHT 8
RAW_ASCENT 800
RAW_DESCENT 200
NORM_SPACE 4
RELATIVE_WEIGHT 40
RELATIVE_SETWIDTH 30
SUPERSCRIPT_X 0
SUPERSCRIPT_Y 2
SUPERSCRIPT_SIZE 1
SUBSCRIPT_X 0
SUBSCRIPT_Y 2
SUBSCRIPT_SIZE 1
AVG_LOWERCASE_WIDTH 82
AVG_UPPERCASE_WIDTH 87
ENDPROPERTIES
CHARS 222
STARTCHAR space
ENCODING 32
SWIDTH 293 0
DWIDTH 4 0
BBX 1 1 0 0
BITMAP
00
ENDCHAR
STARTCHAR exclam
ENCODING 33
SWIDTH 174 0
DWIDTH 3 0
BBX 1 9 1 0
BITMAP
80
80
80
80
80
80
00
80
80
ENDCHAR
STARTCHAR quotedbl
ENCODING 34
SWIDTH 328 0
DWIDTH 5 0
BBX 3 2 1 7
BITMAP
A0
A0
ENDCHAR
STARTCHAR numbersign
ENCODING 35
SWIDTH 658 0
DWIDTH 10 0
BBX 8 9 1 0
BITMAP
44
44
FF
04
04
04
FF
44
44
ENDCHAR
STARTCHAR dollar
ENCODING 36
SWIDTH 544 0
DWIDTH 8 0
BBX 6 12 1 -1
BITMAP
20
20
FC
A0
A0
A0
64
24
24
24
FC
20
ENDCHAR
STARTCHAR percent
ENCODING 37
SWIDTH 678 0
DWIDTH 10 0
BBX 8 9 1 0
BITMAP
E4
94
98
E8
12
15
19
25
27
ENDCHAR
STARTCHAR ampersand
ENCODING 38
SWIDTH 576 0
DWIDTH 9 0
BBX 7 9 1 0
BITMAP
F8
80
80
80
9E
84
84
84
78
ENDCHAR
STARTCHAR quotesingle
ENCODING 39
SWIDTH 194 0
DWIDTH 3 0
BBX 1 2 1 7
BITMAP
80
80
ENDCHAR
STARTCHAR parenleft
ENCODING 40
SWIDTH 327 0
DWIDTH 5 0
BBX 3 10 1 0
BITMAP
20
40
80
80
80
80
80
80
C0
60
ENDCHAR
STARTCHAR parenright
ENCODING 41
SWIDTH 327 0
DWIDTH 5 0
BBX 3 10 1 0
BITMAP
80
C0
60
20
20
20
20
20
40
C0
ENDCHAR
STARTCHAR asterisk
ENCODING 42
SWIDTH 220 0
DWIDTH 3 0
BBX 1 2 1 8
BITMAP
80
80
ENDCHAR
STARTCHAR plus
ENCODING 43
SWIDTH 405 0
DWIDTH 6 0
BBX 4 4 1 3
BITMAP
40
40
F0
40
ENDCHAR
STARTCHAR comma
ENCODING 44
SWIDTH 193 0
DWIDTH 3 0
BBX 1 3 1 -1
BITMAP
80
80
80
ENDCHAR
STARTCHAR hyphen
ENCODING 45
SWIDTH 405 0
DWIDTH 6 0
BBX 4 1 1 4
BITMAP
F0
ENDCHAR
STARTCHAR period
ENCODING 46
SWIDTH 193 0
DWIDTH 3 0
BBX 1 2 1 0
BITMAP
80
80
ENDCHAR
STARTCHAR slash
ENCODING 47
SWIDTH 384 0
DWIDTH 6 0
BBX 4 9 1 0
BITMAP
10
20
20
20
40
40
80
80
80
ENDCHAR
STARTCHAR zero
ENCODING 48
SWIDTH 604 0
DWIDTH 9 0
BBX 7 9 1 0
BITMAP
7C
CE
8A
92
92
92
A2
64
38
ENDCHAR
STARTCHAR one
ENCODING 49
SWIDTH 275 0
DWIDTH 4 0
BBX 2 9 1 0
BITMAP
C0
40
40
40
40
40
40
40
40
ENDCHAR
STARTCHAR two
ENCODING 50
SWIDTH 548 0
DWIDTH 8 0
BBX 6 9 1 0
BITMAP
FC
04
04
04
C0
80
80
80
FC
ENDCHAR
STARTCHAR three
ENCODING 51
SWIDTH 496 0
DWIDTH 7 0
BBX 6 9 1 0
BITMAP
F8
04
04
08
18
04
04
08
F8
ENDCHAR
STARTCHAR four
ENCODING 52
SWIDTH 580 0
DWIDTH 9 0
BBX 7 9 1 0
BITMAP
82
82
82
82
FA
02
02
02
02
ENDCHAR
STARTCHAR five
ENCODING 53
SWIDTH 551 0
DWIDTH 8 0
BBX 6 9 1 0
BITMAP
FC
80
80
80
C4
04
04
04
FC
ENDCHAR
STARTCHAR six
ENCODING 54
SWIDTH 604 0
DWIDTH 9 0
BBX 7 9 1 0
BITMAP
7C
C6
82
80
FE
82
82
44
38
ENDCHAR
STARTCHAR seven
ENCODING 55
SWIDTH 534 0
DWIDTH 8 0
BBX 6 9 1 0
BITMAP
FC
08
08
10
10
20
40
40
80
ENDCHAR
STARTCHAR eight
ENCODING 56
SWIDTH 544 0
DWIDTH 8 0
BBX 6 9 1 0
BITMAP
FC
84
84
84
9C
84
84
84
7C
ENDCHAR
STARTCHAR nine
ENCODING 57
SWIDTH 604 0
DWIDTH 9 0
BBX 7 9 1 0
BITMAP
7C
46
82
82
FE
02
82
44
38
ENDCHAR
STARTCHAR colon
ENCODING 58
SWIDTH 193 0
DWIDTH 3 0
BBX 1 7 1 0
BITMAP
80
80
00
00
00
80
80
ENDCHAR
STARTCHAR semicolon
ENCODING 59
SWIDTH 193 0
DWIDTH 3 0
BBX 1 8 1 -1
BITMAP
80
80
00
00
00
80
80
80
ENDCHAR
STARTCHAR less
ENCODING 60
SWIDTH 266 0
DWIDTH 4 0
BBX 2 9 1 0
BITMAP
40
40
80
80
80
80
80
40
40
ENDCHAR
STARTCHAR equal
ENCODING 61
SWIDTH 405 0
DWIDTH 6 0
BBX 4 3 1 3
BITMAP
F0
00
F0
ENDCHAR
STARTCHAR greater
ENCODING 62
SWIDTH 266 0
DWIDTH 4 0
BBX 2 9 1 0
BITMAP
80
80
40
40
40
40
40
80
80
ENDCHAR
STARTCHAR question
ENCODING 63
SWIDTH 540 0
DWIDTH 8 0
BBX 6 9 1 0
BITMAP
FC
04
04
04
48
40
00
00
C0
ENDCHAR
STARTCHAR at
ENCODING 64
SWIDTH 651 0
DWIDTH 10 0
BBX 8 10 1 0
BITMAP
18
64
C2
B9
A1
A7
A4
98
42
3C
ENDCHAR
STARTCHAR A
ENCODING 65
SWIDTH 599 0
DWIDTH 9 0
BBX 7 10 1 0
BITMAP
10
10
30
28
28
44
44
84
82
FA
ENDCHAR
STARTCHAR B
ENCODING 66
SWIDTH 551 0
DWIDTH 8 0
BBX 6 9 1 0
BITMAP
FC
84
84
84
9C
84
84
84
FC
ENDCHAR
STARTCHAR C
ENCODING 67
SWIDTH 585 0
DWIDTH 9 0
BBX 7 9 1 0
BITMAP
7C
C6
82
80
80
80
80
44
38
ENDCHAR
STARTCHAR D
ENCODING 68
SWIDTH 569 0
DWIDTH 9 0
BBX 7 9 1 0
BITMAP
F8
84
84
82
82
82
84
8C
F8
ENDCHAR
STARTCHAR E
ENCODING 69
SWIDTH 498 0
DWIDTH 7 0
BBX 6 9 1 0
BITMAP
FC
80
80
80
B8
80
80
80
FC
ENDCHAR
STARTCHAR F
ENCODING 70
SWIDTH 498 0
DWIDTH 7 0
BBX 6 9 1 0
BITMAP
FC
80
80
80
B8
80
80
80
80
ENDCHAR
STARTCHAR G
ENCODING 71
SWIDTH 585 0
DWIDTH 9 0
BBX 7 9 1 0
BITMAP
7C
C6
82
80
9E
80
80
44
38
ENDCHAR
STARTCHAR H
ENCODING 72
SWIDTH 580 0
DWIDTH 9 0
BBX 7 9 1 0
BITMAP
82
82
82
82
FA
82
82
82
82
ENDCHAR
STARTCHAR I
ENCODING 73
SWIDTH 541 0
DWIDTH 8 0
BBX 6 9 1 0
BITMAP
FC
20
20
20
20
20
20
20
FC
ENDCHAR
STARTCHAR J
ENCODING 74
SWIDTH 619 0
DWIDTH 9 0
BBX 7 9 1 0
BITMAP
02
02
02
02
02
82
82
44
38
ENDCHAR
STARTCHAR K
ENCODING 75
SWIDTH 584 0
DWIDTH 9 0
BBX 7 9 1 0
BITMAP
82
84
84
84
E8
84
84
82
82
ENDCHAR
STARTCHAR L
ENCODING 76
SWIDTH 496 0
DWIDTH 7 0
BBX 6 9 1 0
BITMAP
80
80
80
80
80
80
80
80
FC
ENDCHAR
STARTCHAR M
ENCODING 77
SWIDTH 770 0
DWIDTH 12 0
BBX 10 9 1 0
BITMAP
1200
3600
3600
2D00
4900
4080
8080
8080
8040
ENDCHAR
STARTCHAR N
ENCODING 78
SWIDTH 584 0
DWIDTH 9 0
BBX 7 9 1 0
BITMAP
C2
C2
A2
A2
92
8A
8A
86
86
ENDCHAR
STARTCHAR O
ENCODING 79
SWIDTH 604 0
DWIDTH 9 0
BBX 7 9 1 0
BITMAP
7C
C6
82
82
82
82
82
44
38
ENDCHAR
STARTCHAR P
ENCODING 80
SWIDTH 551 0
DWIDTH 8 0
BBX 6 9 1 0
BITMAP
FC
84
84
84
9C
80
80
80
80
ENDCHAR
STARTCHAR Q
ENCODING 81
SWIDTH 604 0
DWIDTH 9 0
BBX 7 9 1 0
BITMAP
7C
C6
82
82
82
82
82
44
3A
ENDCHAR
STARTCHAR R
ENCODING 82
SWIDTH 551 0
DWIDTH 8 0
BBX 6 9 1 0
BITMAP
FC
84
84
84
9C
88
88
84
84
ENDCHAR
STARTCHAR S
ENCODING 83
SWIDTH 544 0
DWIDTH 8 0
BBX 6 9 1 0
BITMAP
FC
80
80
80
44
04
04
04
FC
ENDCHAR
STARTCHAR T
ENCODING 84
SWIDTH 549 0
DWIDTH 8 0
BBX 6 9 1 0
BITMAP
FC
10
10
10
10
10
10
10
10
ENDCHAR
STARTCHAR U
ENCODING 85
SWIDTH 626 0
DWIDTH 9 0
BBX 8 9 1 0
BITMAP
81
81
81
81
82
82
82
46
38
ENDCHAR
STARTCHAR V
ENCODING 86
SWIDTH 599 0
DWIDTH 9 0
BBX 7 9 1 0
BITMAP
82
82
44
44
48
28
28
10
10
ENDCHAR
STARTCHAR W
ENCODING 87
SWIDTH 712 0
DWIDTH 11 0
BBX 9 9 1 0
BITMAP
8880
9880
9480
A480
A480
A280
C280
C180
C180
ENDCHAR
STARTCHAR X
ENCODING 88
SWIDTH 570 0
DWIDTH 9 0
BBX 7 9 1 0
BITMAP
82
84
44
48
48
44
44
84
82
ENDCHAR
STARTCHAR Y
ENCODING 89
SWIDTH 562 0
DWIDTH 8 0
BBX 6 9 1 0
BITMAP
84
44
48
28
30
10
10
10
10
ENDCHAR
STARTCHAR Z
ENCODING 90
SWIDTH 554 0
DWIDTH 8 0
BBX 6 9 1 0
BITMAP
FC
08
08
10
10
20
40
40
FC
ENDCHAR
STARTCHAR bracketleft
ENCODING 91
SWIDTH 331 0
DWIDTH 5 0
BBX 3 11 1 -1
BITMAP
E0
80
80
80
80
80
80
80
80
80
E0
ENDCHAR
STARTCHAR backslash
ENCODING 92
SWIDTH 392 0
DWIDTH 6 0
BBX 4 9 1 0
BITMAP
80
80
40
40
40
20
20
10
10
ENDCHAR
STARTCHAR bracketright
ENCODING 93
SWIDTH 331 0
DWIDTH 5 0
BBX 3 11 1 -1
BITMAP
E0
20
20
20
20
20
20
20
20
20
E0
ENDCHAR
STARTCHAR asciicircum
ENCODING 94
SWIDTH 599 0
DWIDTH 9 0
BBX 7 10 1 0
BITMAP
10
10
30
28
28
44
44
84
82
82
ENDCHAR
STARTCHAR underscore
ENCODING 95
SWIDTH 514 0
DWIDTH 8 0
BBX 6 1 1 0
BITMAP
FC
ENDCHAR
STARTCHAR grave
ENCODING 96
SWIDTH 147 0
DWIDTH 2 0
BBX 2 2 0 10
BITMAP
80
40
ENDCHAR
STARTCHAR a
ENCODING 97
SWIDTH 599 0
DWIDTH 9 0
BBX 7 10 1 0
BITMAP
10
10
30
28
28
44
44
84
82
BE
ENDCHAR
STARTCHAR b
ENCODING 98
SWIDTH 551 0
DWIDTH 8 0
BBX 6 9 1 0
BITMAP
FC
84
84
84
9C
84
84
84
FC
ENDCHAR
STARTCHAR c
ENCODING 99
SWIDTH 585 0
DWIDTH 9 0
BBX 7 9 1 0
BITMAP
7C
C6
82
80
80
80
80
44
38
ENDCHAR
STARTCHAR d
ENCODING 100
SWIDTH 569 0
DWIDTH 9 0
BBX 7 9 1 0
BITMAP
F8
84
84
82
82
82
84
8C
F8
ENDCHAR
STARTCHAR e
ENCODING 101
SWIDTH 498 0
DWIDTH 7 0
BBX 6 9 1 0
BITMAP
FC
80
80
80
B8
80
80
80
FC
ENDCHAR
STARTCHAR f
ENCODING 102
SWIDTH 498 0
DWIDTH 7 0
BBX 6 9 1 0
BITMAP
FC
80
80
80
B8
80
80
80
80
ENDCHAR
STARTCHAR g
ENCODING 103
SWIDTH 585 0
DWIDTH 9 0
BBX 7 9 1 0
BITMAP
7C
C6
82
80
9E
80
80
44
38
ENDCHAR
STARTCHAR h
ENCODING 104
SWIDTH 580 0
DWIDTH 9 0
BBX 7 9 1 0
BITMAP
82
82
82
82
BE
82
82
82
82
ENDCHAR
STARTCHAR i
ENCODING 105
SWIDTH 175 0
DWIDTH 3 0
BBX 1 9 1 0
BITMAP
80
80
80
80
80
80
80
80
80
ENDCHAR
STARTCHAR j
ENCODING 106
SWIDTH 580 0
DWIDTH 9 0
BBX 7 9 1 0
BITMAP
02
02
02
02
02
02
84
84
78
ENDCHAR
STARTCHAR k
ENCODING 107
SWIDTH 592 0
DWIDTH 9 0
BBX 7 9 1 0
BITMAP
82
84
84
84
B8
84
84
82
82
ENDCHAR
STARTCHAR l
ENCODING 108
SWIDTH 496 0
DWIDTH 7 0
BBX 6 9 1 0
BITMAP
80
80
80
80
80
80
80
80
FC
ENDCHAR
STARTCHAR m
ENCODING 109
SWIDTH 712 0
DWIDTH 11 0
BBX 9 9 1 0
BITMAP
C180
C180
C280
A280
A480
9480
9480
8880
8880
ENDCHAR
STARTCHAR n
ENCODING 110
SWIDTH 584 0
DWIDTH 9 0
BBX 7 9 1 0
BITMAP
C2
C2
A2
A2
92
8A
8A
86
86
ENDCHAR
STARTCHAR o
ENCODING 111
SWIDTH 604 0
DWIDTH 9 0
BBX 7 8 1 1
BITMAP
7C
C6
82
82
82
82
82
44
ENDCHAR
STARTCHAR p
ENCODING 112
SWIDTH 551 0
DWIDTH 8 0
BBX 6 9 1 0
BITMAP
FC
84
84
84
9C
80
80
80
80
ENDCHAR
STARTCHAR q
ENCODING 113
SWIDTH 604 0
DWIDTH 9 0
BBX 7 9 1 0
BITMAP
7C
C6
82
82
82
82
82
44
32
ENDCHAR
STARTCHAR r
ENCODING 114
SWIDTH 551 0
DWIDTH 8 0
BBX 6 9 1 0
BITMAP
FC
84
84
84
9C
88
88
84
84
ENDCHAR
STARTCHAR s
ENCODING 115
SWIDTH 544 0
DWIDTH 8 0
BBX 6 9 1 0
BITMAP
FC
80
80
80
44
04
04
04
FC
ENDCHAR
STARTCHAR t
ENCODING 116
SWIDTH 541 0
DWIDTH 8 0
BBX 6 9 1 0
BITMAP
FC
20
20
20
20
20
20
20
20
ENDCHAR
STARTCHAR u
ENCODING 117
SWIDTH 626 0
DWIDTH 9 0
BBX 8 9 1 0
BITMAP
81
81
81
81
82
82
82
46
38
ENDCHAR
STARTCHAR v
ENCODING 118
SWIDTH 599 0
DWIDTH 9 0
BBX 7 9 1 0
BITMAP
82
82
44
44
48
28
28
10
10
ENDCHAR
STARTCHAR w
ENCODING 119
SWIDTH 770 0
DWIDTH 12 0
BBX 10 9 1 0
BITMAP
8040
8080
4080
4900
4900
2D00
3600
3200
2200
ENDCHAR
STARTCHAR x
ENCODING 120
SWIDTH 570 0
DWIDTH 9 0
BBX 7 9 1 0
BITMAP
82
84
44
48
48
44
44
84
82
ENDCHAR
STARTCHAR y
ENCODING 121
SWIDTH 562 0
DWIDTH 8 0
BBX 6 9 1 0
BITMAP
84
44
48
28
30
10
10
10
10
ENDCHAR
STARTCHAR z
ENCODING 122
SWIDTH 554 0
DWIDTH 8 0
BBX 6 9 1 0
BITMAP
FC
08
08
10
00
20
40
40
FC
ENDCHAR
STARTCHAR braceleft
ENCODING 123
SWIDTH 544 0
DWIDTH 8 0
BBX 6 9 1 0
BITMAP
FC
80
80
80
7C
04
04
04
FC
ENDCHAR
STARTCHAR bar
ENCODING 124
SWIDTH 174 0
DWIDTH 3 0
BBX 1 15 1 -3
BITMAP
80
80
80
80
80
80
80
80
80
80
80
80
80
80
80
ENDCHAR
STARTCHAR braceright
ENCODING 125
SWIDTH 604 0
DWIDTH 9 0
BBX 7 10 1 -1
BITMAP
7C
C6
82
82
92
92
92
54
10
10
ENDCHAR
STARTCHAR asciitilde
ENCODING 126
SWIDTH 356 0
DWIDTH 5 0
BBX 3 2 1 4
BITMAP
40
E0
ENDCHAR
STARTCHAR FL0127
ENCODING 127
SWIDTH 159 0
DWIDTH 2 0
BBX 1 1 0 0
BITMAP
00
ENDCHAR
STARTCHAR space.dup1
ENCODING 160
SWIDTH 293 0
DWIDTH 4 0
BBX 1 1 0 0
BITMAP
00
ENDCHAR
STARTCHAR FL00A1h
ENCODING 161
SWIDTH 174 0
DWIDTH 3 0
BBX 1 9 1 0
BITMAP
80
00
00
80
80
80
80
80
80
ENDCHAR
STARTCHAR FL00A2h
ENCODING 162
SWIDTH 585 0
DWIDTH 9 0
BBX 7 13 1 -2
BITMAP
10
10
7C
D6
92
90
90
90
90
54
38
10
10
ENDCHAR
STARTCHAR FL00A3h
ENCODING 163
SWIDTH 496 0
DWIDTH 7 0
BBX 8 9 -1 0
BITMAP
38
20
20
20
FC
20
20
20
FF
ENDCHAR
STARTCHAR FL00A4h
ENCODING 164
SWIDTH 570 0
DWIDTH 9 0
BBX 7 9 1 0
BITMAP
82
84
74
48
48
6C
74
84
82
ENDCHAR
STARTCHAR FL00A5h
ENCODING 165
SWIDTH 562 0
DWIDTH 8 0
BBX 6 9 1 0
BITMAP
84
44
48
28
30
7C
10
7C
10
ENDCHAR
STARTCHAR FL00A6h
ENCODING 166
SWIDTH 174 0
DWIDTH 3 0
BBX 1 15 1 -3
BITMAP
80
80
80
80
80
80
80
00
80
80
80
80
80
80
80
ENDCHAR
STARTCHAR FL00A7h
ENCODING 167
SWIDTH 570 0
DWIDTH 9 0
BBX 7 9 1 0
BITMAP
02
04
34
48
48
68
70
80
80
ENDCHAR
STARTCHAR FL00A8h
ENCODING 168
SWIDTH 244 0
DWIDTH 4 0
BBX 4 2 0 10
BITMAP
B0
A0
ENDCHAR
STARTCHAR FL00A9h
ENCODING 169
SWIDTH 252 0
DWIDTH 4 0
BBX 2 3 1 7
BITMAP
C0
C0
80
ENDCHAR
STARTCHAR FL00AAh
ENCODING 170
SWIDTH 599 0
DWIDTH 9 0
BBX 7 10 1 0
BITMAP
10
10
30
28
28
44
44
9C
82
82
ENDCHAR
STARTCHAR FL00ABh
ENCODING 171
SWIDTH 328 0
DWIDTH 5 0
BBX 3 4 1 3
BITMAP
80
A0
A0
A0
ENDCHAR
STARTCHAR FL00ACh
ENCODING 172
SWIDTH 408 0
DWIDTH 6 0
BBX 4 3 1 2
BITMAP
F0
10
10
ENDCHAR
STARTCHAR FL00B2h
ENCODING 173
SWIDTH 345 0
DWIDTH 5 0
BBX 3 1 1 4
BITMAP
E0
ENDCHAR
STARTCHAR FL00AEh
ENCODING 174
SWIDTH 252 0
DWIDTH 4 0
BBX 2 3 1 7
BITMAP
C0
C0
80
ENDCHAR
STARTCHAR FL0667h
ENCODING 175
SWIDTH 514 0
DWIDTH 8 0
BBX 6 1 1 8
BITMAP
FC
ENDCHAR
STARTCHAR FL00B0h
ENCODING 176
SWIDTH 98 0
DWIDTH 1 0
BBX 1 2 0 10
BITMAP
80
80
ENDCHAR
STARTCHAR FL00B1h
ENCODING 177
SWIDTH 405 0
DWIDTH 6 0
BBX 4 7 1 0
BITMAP
40
40
F0
40
00
00
F0
ENDCHAR
STARTCHAR FL00B3h
ENCODING 178
SWIDTH 325 0
DWIDTH 5 0
BBX 3 5 1 5
BITMAP
E0
20
A0
80
E0
ENDCHAR
STARTCHAR FL00B5h
ENCODING 179
SWIDTH 303 0
DWIDTH 5 0
BBX 3 5 1 5
BITMAP
C0
20
60
20
C0
ENDCHAR
STARTCHAR FL00B4h
ENCODING 180
SWIDTH 129 0
DWIDTH 2 0
BBX 2 2 0 10
BITMAP
40
80
ENDCHAR
STARTCHAR FL00B6h
ENCODING 181
SWIDTH 626 0
DWIDTH 9 0
BBX 8 12 1 -3
BITMAP
81
81
81
81
82
82
82
C6
B8
80
80
80
ENDCHAR
STARTCHAR FL00BDh
ENCODING 182
SWIDTH 502 0
DWIDTH 8 0
BBX 6 10 1 -1
BITMAP
FC
E4
E4
E4
E4
24
24
24
24
24
ENDCHAR
STARTCHAR FL00B7h
ENCODING 183
SWIDTH 193 0
DWIDTH 3 0
BBX 1 2 1 4
BITMAP
80
80
ENDCHAR
STARTCHAR FL00B9h
ENCODING 184
SWIDTH 151 0
DWIDTH 2 0
BBX 2 2 0 -2
BITMAP
40
80
ENDCHAR
STARTCHAR FL00BCh
ENCODING 185
SWIDTH 205 0
DWIDTH 3 0
BBX 1 5 1 5
BITMAP
80
80
80
80
80
ENDCHAR
STARTCHAR FL00BAh
ENCODING 186
SWIDTH 359 0
DWIDTH 5 0
BBX 4 5 1 5
BITMAP
60
A0
90
A0
60
ENDCHAR
STARTCHAR FL00BBh
ENCODING 187
SWIDTH 328 0
DWIDTH 5 0
BBX 3 3 1 3
BITMAP
A0
A0
C0
ENDCHAR
STARTCHAR FL0385h
ENCODING 188
SWIDTH 590 0
DWIDTH 9 0
BBX 7 9 1 0
BITMAP
90
90
90
A0
2A
4A
4E
42
82
ENDCHAR
STARTCHAR FL00BEh
ENCODING 189
SWIDTH 588 0
DWIDTH 9 0
BBX 7 9 1 0
BITMAP
90
90
90
A0
2C
42
4A
50
8E
ENDCHAR
STARTCHAR FL03A1h
ENCODING 190
SWIDTH 647 0
DWIDTH 10 0
BBX 8 9 1 0
BITMAP
E8
28
28
F0
11
29
25
21
41
ENDCHAR
STARTCHAR FL00BFh
ENCODING 191
SWIDTH 540 0
DWIDTH 8 0
BBX 6 9 1 0
BITMAP
0C
00
00
08
C8
80
80
80
7C
ENDCHAR
STARTCHAR FL00C0h
ENCODING 192
SWIDTH 599 0
DWIDTH 9 0
BBX 7 12 1 0
BITMAP
10
10
10
10
30
28
28
44
44
84
82
FA
ENDCHAR
STARTCHAR FL00C1h
ENCODING 193
SWIDTH 599 0
DWIDTH 9 0
BBX 7 12 1 0
BITMAP
10
10
10
10
30
28
28
44
44
84
82
FA
ENDCHAR
STARTCHAR FL00C2h
ENCODING 194
SWIDTH 599 0
DWIDTH 9 0
BBX 7 12 1 0
BITMAP
10
28
10
10
30
28
28
44
44
84
82
FA
ENDCHAR
STARTCHAR FL00C3h
ENCODING 195
SWIDTH 599 0
DWIDTH 9 0
BBX 7 12 1 0
BITMAP
38
30
10
10
30
28
28
44
44
84
82
FA
ENDCHAR
STARTCHAR FL00C4h
ENCODING 196
SWIDTH 599 0
DWIDTH 9 0
BBX 7 12 1 0
BITMAP
28
28
10
10
30
28
28
44
44
84
82
FA
ENDCHAR
STARTCHAR FL00C5h
ENCODING 197
SWIDTH 599 0
DWIDTH 9 0
BBX 7 12 1 0
BITMAP
10
10
10
10
30
28
28
44
44
84
82
FA
ENDCHAR
STARTCHAR FL00C6h
ENCODING 198
SWIDTH 939 0
DWIDTH 14 0
BBX 12 10 1 0
BITMAP
1000
13F0
3200
2A00
2A00
46F0
4600
8600
8200
FBF0
ENDCHAR
STARTCHAR FL00C7h
ENCODING 199
SWIDTH 585 0
DWIDTH 9 0
BBX 7 11 1 -2
BITMAP
7C
C6
82
80
80
80
80
44
38
10
30
ENDCHAR
STARTCHAR FL00C8h
ENCODING 200
SWIDTH 498 0
DWIDTH 7 0
BBX 6 12 1 0
BITMAP
20
00
00
FC
80
80
80
B8
80
80
80
FC
ENDCHAR
STARTCHAR FL00C9h
ENCODING 201
SWIDTH 498 0
DWIDTH 7 0
BBX 6 12 1 0
BITMAP
20
20
00
FC
80
80
80
B8
80
80
80
FC
ENDCHAR
STARTCHAR FL00CAh
ENCODING 202
SWIDTH 498 0
DWIDTH 7 0
BBX 6 12 1 0
BITMAP
20
50
00
FC
80
80
80
B8
80
80
80
FC
ENDCHAR
STARTCHAR FL00CBh
ENCODING 203
SWIDTH 498 0
DWIDTH 7 0
BBX 6 12 1 0
BITMAP
50
50
00
FC
80
80
80
B8
80
80
80
FC
ENDCHAR
STARTCHAR FL00CCh
ENCODING 204
SWIDTH 541 0
DWIDTH 8 0
BBX 6 12 1 0
BITMAP
20
10
00
FC
20
20
20
20
20
20
20
FC
ENDCHAR
STARTCHAR FL00CDh
ENCODING 205
SWIDTH 541 0
DWIDTH 8 0
BBX 6 12 1 0
BITMAP
10
20
00
FC
20
20
20
20
20
20
20
FC
ENDCHAR
STARTCHAR FL00CEh
ENCODING 206
SWIDTH 541 0
DWIDTH 8 0
BBX 6 12 1 0
BITMAP
30
30
00
FC
20
20
20
20
20
20
20
FC
ENDCHAR
STARTCHAR FL00CFh
ENCODING 207
SWIDTH 541 0
DWIDTH 8 0
BBX 6 12 1 0
BITMAP
68
48
00
FC
20
20
20
20
20
20
20
FC
ENDCHAR
STARTCHAR FL00D0h
ENCODING 208
SWIDTH 669 0
DWIDTH 10 0
BBX 8 9 1 0
BITMAP
7E
43
41
41
F1
41
41
42
7C
ENDCHAR
STARTCHAR FL00D1h
ENCODING 209
SWIDTH 584 0
DWIDTH 9 0
BBX 7 12 1 0
BITMAP
38
30
00
C2
C2
A2
A2
92
8A
8A
86
86
ENDCHAR
STARTCHAR FL00D2h
ENCODING 210
SWIDTH 604 0
DWIDTH 9 0
BBX 7 12 1 0
BITMAP
10
10
00
7C
C6
82
82
82
82
82
44
38
ENDCHAR
STARTCHAR FL00D3h
ENCODING 211
SWIDTH 604 0
DWIDTH 9 0
BBX 7 12 1 0
BITMAP
10
10
00
7C
C6
82
82
82
82
82
44
38
ENDCHAR
STARTCHAR FL00D4h
ENCODING 212
SWIDTH 604 0
DWIDTH 9 0
BBX 7 12 1 0
BITMAP
10
28
00
7C
C6
82
82
82
82
82
44
38
ENDCHAR
STARTCHAR FL00D5h
ENCODING 213
SWIDTH 604 0
DWIDTH 9 0
BBX 7 12 1 0
BITMAP
38
30
00
7C
C6
82
82
82
82
82
44
38
ENDCHAR
STARTCHAR FL00D6h
ENCODING 214
SWIDTH 604 0
DWIDTH 9 0
BBX 7 12 1 0
BITMAP
28
28
00
7C
C6
82
82
82
82
82
44
38
ENDCHAR
STARTCHAR FL00D7h
ENCODING 215
SWIDTH 354 0
DWIDTH 5 0
BBX 3 4 1 3
BITMAP
A0
60
60
A0
ENDCHAR
STARTCHAR FL00D8h
ENCODING 216
SWIDTH 604 0
DWIDTH 9 0
BBX 7 9 1 0
BITMAP
7C
E6
A2
92
92
92
8A
4C
38
ENDCHAR
STARTCHAR FL00D9h
ENCODING 217
SWIDTH 617 0
DWIDTH 9 0
BBX 8 12 1 0
BITMAP
10
10
00
81
81
81
81
82
82
82
46
38
ENDCHAR
STARTCHAR FL00DAh
ENCODING 218
SWIDTH 617 0
DWIDTH 9 0
BBX 8 12 1 0
BITMAP
10
10
00
81
81
81
81
82
82
82
46
38
ENDCHAR
STARTCHAR FL00DBh
ENCODING 219
SWIDTH 617 0
DWIDTH 9 0
BBX 8 12 1 0
BITMAP
10
28
00
81
81
81
81
82
82
82
46
38
ENDCHAR
STARTCHAR FL00DCh
ENCODING 220
SWIDTH 617 0
DWIDTH 9 0
BBX 8 12 1 0
BITMAP
28
28
00
81
81
81
81
82
82
82
46
38
ENDCHAR
STARTCHAR FL00DDh
ENCODING 221
SWIDTH 562 0
DWIDTH 8 0
BBX 6 12 1 0
BITMAP
10
00
00
84
44
48
28
30
10
10
10
10
ENDCHAR
STARTCHAR FL00DEh
ENCODING 222
SWIDTH 551 0
DWIDTH 8 0
BBX 6 9 1 0
BITMAP
80
80
FC
84
84
84
9C
80
80
ENDCHAR
STARTCHAR FL00DFh
ENCODING 223
SWIDTH 546 0
DWIDTH 8 0
BBX 6 10 1 -1
BITMAP
FC
84
84
84
9C
84
84
84
9C
80
ENDCHAR
STARTCHAR FL00E0h
ENCODING 224
SWIDTH 599 0
DWIDTH 9 0
BBX 7 12 1 0
BITMAP
10
10
10
10
30
28
28
44
44
84
82
BE
ENDCHAR
STARTCHAR FL00E1h
ENCODING 225
SWIDTH 599 0
DWIDTH 9 0
BBX 7 12 1 0
BITMAP
10
10
10
10
30
28
28
44
44
84
82
BE
ENDCHAR
STARTCHAR FL00E2h
ENCODING 226
SWIDTH 599 0
DWIDTH 9 0
BBX 7 12 1 0
BITMAP
10
28
10
10
30
28
28
44
44
84
82
BE
ENDCHAR
STARTCHAR FL00E3h
ENCODING 227
SWIDTH 599 0
DWIDTH 9 0
BBX 7 12 1 0
BITMAP
38
30
10
10
30
28
28
44
44
84
82
BE
ENDCHAR
STARTCHAR FL00E4h
ENCODING 228
SWIDTH 599 0
DWIDTH 9 0
BBX 7 12 1 0
BITMAP
28
28
10
10
30
28
28
44
44
84
82
BE
ENDCHAR
STARTCHAR FL00E5h
ENCODING 229
SWIDTH 599 0
DWIDTH 9 0
BBX 7 12 1 0
BITMAP
10
10
10
10
30
28
28
44
44
84
82
BE
ENDCHAR
STARTCHAR FL00E6h
ENCODING 230
SWIDTH 916 0
DWIDTH 14 0
BBX 12 10 1 0
BITMAP
1000
13F0
3200
2A00
2A00
46F0
4600
8600
8200
BFF0
ENDCHAR
STARTCHAR FL00E7h
ENCODING 231
SWIDTH 585 0
DWIDTH 9 0
BBX 7 11 1 -2
BITMAP
7C
C6
82
80
80
80
80
44
38
10
30
ENDCHAR
STARTCHAR FL00E8h
ENCODING 232
SWIDTH 498 0
DWIDTH 7 0
BBX 6 12 1 0
BITMAP
20
00
00
FC
80
80
80
B8
80
80
80
FC
ENDCHAR
STARTCHAR FL00EAh
ENCODING 233
SWIDTH 498 0
DWIDTH 7 0
BBX 6 12 1 0
BITMAP
20
20
00
FC
80
80
80
B8
80
80
80
FC
ENDCHAR
STARTCHAR FL00E9h
ENCODING 234
SWIDTH 498 0
DWIDTH 7 0
BBX 6 12 1 0
BITMAP
20
50
00
FC
80
80
80
B8
80
80
80
FC
ENDCHAR
STARTCHAR FL00EBh
ENCODING 235
SWIDTH 498 0
DWIDTH 7 0
BBX 6 12 1 0
BITMAP
50
50
00
FC
80
80
80
B8
80
80
80
FC
ENDCHAR
STARTCHAR FL00ECh
ENCODING 236
SWIDTH 174 0
DWIDTH 3 0
BBX 1 12 1 0
BITMAP
80
80
00
80
80
80
80
80
80
80
80
80
ENDCHAR
STARTCHAR FL00EDh
ENCODING 237
SWIDTH 174 0
DWIDTH 3 0
BBX 1 12 1 0
BITMAP
80
00
00
80
80
80
80
80
80
80
80
80
ENDCHAR
STARTCHAR FL00EEh
ENCODING 238
SWIDTH 174 0
DWIDTH 3 0
BBX 3 12 0 0
BITMAP
40
A0
00
40
40
40
40
40
40
40
40
40
ENDCHAR
STARTCHAR FL00EFh
ENCODING 239
SWIDTH 174 0
DWIDTH 3 0
BBX 3 12 0 0
BITMAP
A0
A0
00
40
40
40
40
40
40
40
40
40
ENDCHAR
STARTCHAR FL00F0h
ENCODING 240
SWIDTH 604 0
DWIDTH 9 0
BBX 7 11 1 0
BITMAP
10
10
7C
56
92
02
FE
82
82
44
38
ENDCHAR
STARTCHAR FL00F1h
ENCODING 241
SWIDTH 584 0
DWIDTH 9 0
BBX 7 12 1 0
BITMAP
38
30
00
C2
C2
A2
A2
92
8A
8A
86
86
ENDCHAR
STARTCHAR FL00F2h
ENCODING 242
SWIDTH 604 0
DWIDTH 9 0
BBX 7 11 1 1
BITMAP
10
10
00
7C
C6
82
82
82
82
82
44
ENDCHAR
STARTCHAR FL00F3h
ENCODING 243
SWIDTH 604 0
DWIDTH 9 0
BBX 7 11 1 1
BITMAP
10
10
00
7C
C6
82
82
82
82
82
44
ENDCHAR
STARTCHAR FL00F4h
ENCODING 244
SWIDTH 604 0
DWIDTH 9 0
BBX 7 11 1 1
BITMAP
10
28
00
7C
C6
82
82
82
82
82
44
ENDCHAR
STARTCHAR FL00F5h
ENCODING 245
SWIDTH 604 0
DWIDTH 9 0
BBX 7 11 1 1
BITMAP
38
30
00
7C
C6
82
82
82
82
82
44
ENDCHAR
STARTCHAR FL00F6h
ENCODING 246
SWIDTH 604 0
DWIDTH 9 0
BBX 7 11 1 1
BITMAP
28
28
00
7C
C6
82
82
82
82
82
44
ENDCHAR
STARTCHAR FL00F7h
ENCODING 247
SWIDTH 541 0
DWIDTH 8 0
BBX 6 6 1 2
BITMAP
30
00
00
FC
00
30
ENDCHAR
STARTCHAR FL00F8h
ENCODING 248
SWIDTH 604 0
DWIDTH 9 0
BBX 7 9 1 0
BITMAP
7C
C6
82
82
82
82
82
44
38
ENDCHAR
STARTCHAR FL00F9h
ENCODING 249
SWIDTH 617 0
DWIDTH 9 0
BBX 8 12 1 0
BITMAP
10
10
00
81
81
81
81
82
82
82
46
38
ENDCHAR
STARTCHAR FL00FAh
ENCODING 250
SWIDTH 617 0
DWIDTH 9 0
BBX 8 12 1 0
BITMAP
10
10
00
81
81
81
81
82
82
82
46
38
ENDCHAR
STARTCHAR FL00FBh
ENCODING 251
SWIDTH 617 0
DWIDTH 9 0
BBX 8 12 1 0
BITMAP
10
28
00
81
81
81
81
82
82
82
46
38
ENDCHAR
STARTCHAR FL00FCh
ENCODING 252
SWIDTH 617 0
DWIDTH 9 0
BBX 8 12 1 0
BITMAP
28
28
00
81
81
81
81
82
82
82
46
38
ENDCHAR
STARTCHAR FL00FDh
ENCODING 253
SWIDTH 562 0
DWIDTH 8 0
BBX 6 12 1 0
BITMAP
10
00
00
84
44
48
28
30
10
10
10
10
ENDCHAR
STARTCHAR FL00FEh
ENCODING 254
SWIDTH 551 0
DWIDTH 8 0
BBX 6 9 1 0
BITMAP
80
80
FC
84
84
84
9C
80
80
ENDCHAR
STARTCHAR FL00FFh
ENCODING 255
SWIDTH 562 0
DWIDTH 8 0
BBX 6 12 1 0
BITMAP
28
28
00
84
44
48
28
30
10
10
10
10
ENDCHAR
STARTCHAR FL0152h
ENCODING 338
SWIDTH 916 0
DWIDTH 14 0
BBX 12 9 1 0
BITMAP
7FF0
C600
8200
8200
82F0
8200
8200
4600
3BF0
ENDCHAR
STARTCHAR FL0153h
ENCODING 339
SWIDTH 916 0
DWIDTH 14 0
BBX 12 9 1 0
BITMAP
7FF0
C600
8200
8200
82F0
8200
8200
4600
3BF0
ENDCHAR
STARTCHAR FL0160h
ENCODING 352
SWIDTH 544 0
DWIDTH 8 0
BBX 6 12 1 0
BITMAP
38
10
00
FC
80
80
80
44
04
04
04
FC
ENDCHAR
STARTCHAR FL0161h
ENCODING 353
SWIDTH 544 0
DWIDTH 8 0
BBX 6 12 1 0
BITMAP
38
10
00
FC
80
80
80
44
04
04
04
FC
ENDCHAR
STARTCHAR FL0178h
ENCODING 376
SWIDTH 562 0
DWIDTH 8 0
BBX 6 12 1 0
BITMAP
28
28
00
84
44
48
28
30
10
10
10
10
ENDCHAR
STARTCHAR FL017Dh
ENCODING 381
SWIDTH 554 0
DWIDTH 8 0
BBX 6 12 1 0
BITMAP
38
10
00
FC
08
08
10
10
20
40
40
FC
ENDCHAR
STARTCHAR FL017Eh
ENCODING 382
SWIDTH 554 0
DWIDTH 8 0
BBX 6 12 1 0
BITMAP
38
10
00
FC
08
08
10
00
20
40
40
FC
ENDCHAR
STARTCHAR FL00AFh
ENCODING 402
SWIDTH 493 0
DWIDTH 7 0
BBX 6 9 1 0
BITMAP
FC
20
20
20
20
20
20
20
20
ENDCHAR
STARTCHAR FL02C6h
ENCODING 710
SWIDTH 214 0
DWIDTH 3 0
BBX 3 2 0 10
BITMAP
40
A0
ENDCHAR
STARTCHAR FL02DCh
ENCODING 732
SWIDTH 184 0
DWIDTH 3 0
BBX 3 2 0 10
BITMAP
E0
C0
ENDCHAR
STARTCHAR FL2013h
ENCODING 8211
SWIDTH 405 0
DWIDTH 6 0
BBX 4 1 1 4
BITMAP
F0
ENDCHAR
STARTCHAR FL2014h
ENCODING 8212
SWIDTH 541 0
DWIDTH 8 0
BBX 6 1 1 4
BITMAP
FC
ENDCHAR
STARTCHAR FL2018h
ENCODING 8216
SWIDTH 194 0
DWIDTH 3 0
BBX 1 2 1 7
BITMAP
80
80
ENDCHAR
STARTCHAR FL2019h
ENCODING 8217
SWIDTH 194 0
DWIDTH 3 0
BBX 1 2 1 7
BITMAP
80
80
ENDCHAR
STARTCHAR FL201Ah
ENCODING 8218
SWIDTH 193 0
DWIDTH 3 0
BBX 1 3 1 -1
BITMAP
80
80
80
ENDCHAR
STARTCHAR FL201Ch
ENCODING 8220
SWIDTH 328 0
DWIDTH 5 0
BBX 3 2 1 7
BITMAP
A0
A0
ENDCHAR
STARTCHAR FL201Dh
ENCODING 8221
SWIDTH 328 0
DWIDTH 5 0
BBX 3 2 1 7
BITMAP
A0
A0
ENDCHAR
STARTCHAR FL201Eh
ENCODING 8222
SWIDTH 328 0
DWIDTH 5 0
BBX 3 3 1 -1
BITMAP
A0
A0
A0
ENDCHAR
STARTCHAR FL2020h
ENCODING 8224
SWIDTH 405 0
DWIDTH 6 0
BBX 4 9 1 0
BITMAP
40
40
F0
40
40
40
40
40
40
ENDCHAR
STARTCHAR FL2021h
ENCODING 8225
SWIDTH 405 0
DWIDTH 6 0
BBX 4 9 1 0
BITMAP
40
40
F0
40
40
40
F0
40
40
ENDCHAR
STARTCHAR FL2022h
ENCODING 8226
SWIDTH 604 0
DWIDTH 9 0
BBX 7 9 1 0
BITMAP
7C
FE
FE
FE
FE
FE
FE
7C
38
ENDCHAR
STARTCHAR FL2026h
ENCODING 8230
SWIDTH 513 0
DWIDTH 8 0
BBX 6 2 1 0
BITMAP
84
A4
ENDCHAR
STARTCHAR FL2030h
ENCODING 8240
SWIDTH 951 0
DWIDTH 14 0
BBX 12 9 1 0
BITMAP
E400
9400
9800
E800
1220
1550
1990
2550
2770
ENDCHAR
STARTCHAR FL2039h
ENCODING 8249
SWIDTH 190 0
DWIDTH 3 0
BBX 1 4 1 3
BITMAP
80
80
80
80
ENDCHAR
STARTCHAR FL203Ah
ENCODING 8250
SWIDTH 190 0
DWIDTH 3 0
BBX 1 3 1 3
BITMAP
80
80
80
ENDCHAR
STARTCHAR FL20ACh
ENCODING 8364
SWIDTH 690 0
DWIDTH 10 0
BBX 8 9 1 0
BITMAP
1E
21
20
FC
40
FC
20
31
1E
ENDCHAR
STARTCHAR FL2122h
ENCODING 8482
SWIDTH 306 0
DWIDTH 5 0
BBX 2 2 2 8
BITMAP
C0
80
ENDCHAR
STARTCHAR .notdef
ENCODING -1
SWIDTH 500 0
DWIDTH 8 0
BBX 1 1 0 0
BITMAP
00
ENDCHAR
STARTCHAR .null
ENCODING -1
SWIDTH 0 0
DWIDTH 0 0
BBX 1 1 0 0
BITMAP
00
ENDCHAR
STARTCHAR nonmarkingreturn
ENCODING -1
SWIDTH 500 0
DWIDTH 8 0
BBX 1 1 0 0
BITMAP
00
ENDCHAR
ENDFONT
